<?xml version="1.0" standalone="no"?>
<!DOCTYPE svg PUBLIC "-//W3C//DTD SVG 20010904//EN"
 "http://www.w3.org/TR/2001/REC-SVG-20010904/DTD/svg10.dtd">
<svg version="1.0" xmlns="http://www.w3.org/2000/svg"
 width="1500.000000pt" height="1500.000000pt" viewBox="0 0 1500.000000 1500.000000"
 preserveAspectRatio="xMidYMid meet">
<metadata>
Created by potrace 1.14, written by Peter Selinger 2001-2017
</metadata>
<g transform="translate(0.000000,1500.000000) scale(0.100000,-0.100000)"
fill="#000000" stroke="none">
<path d="M9009 12166 c-2 -2 -43 -7 -90 -10 -48 -3 -120 -10 -160 -16 -109
-14 -224 -30 -251 -36 -13 -2 -36 -7 -53 -10 -16 -3 -70 -14 -120 -25 -49 -11
-99 -22 -110 -25 -409 -90 -922 -299 -1305 -532 -92 -56 -303 -193 -310 -202
-3 -3 -26 -21 -51 -38 -26 -17 -96 -70 -155 -118 -263 -210 -507 -453 -721
-715 -71 -89 -94 -118 -187 -246 l-38 -53 89 0 88 1 58 79 c170 233 467 549
692 735 33 28 65 55 71 60 6 6 47 37 90 70 43 33 84 65 91 71 36 34 350 234
483 308 496 275 1085 469 1615 531 28 3 66 8 85 10 203 27 836 27 1000 1 14
-2 52 -8 85 -12 33 -4 67 -8 75 -9 33 -4 109 -17 175 -30 39 -8 84 -16 100
-19 178 -33 606 -161 750 -227 22 -9 83 -36 135 -58 303 -127 671 -346 965
-574 595 -463 1097 -1111 1379 -1782 26 -60 51 -119 55 -130 20 -44 46 -117
92 -258 93 -278 168 -621 194 -887 4 -36 9 -76 11 -90 23 -140 23 -670 0 -875
-10 -92 -18 -153 -21 -175 -2 -14 -7 -45 -10 -70 -43 -300 -146 -682 -270
-995 -57 -145 -201 -443 -280 -580 -367 -635 -889 -1180 -1507 -1573 -98 -62
-111 -70 -253 -149 -364 -203 -841 -378 -1260 -462 -142 -29 -148 -30 -255
-46 -83 -13 -275 -33 -395 -40 -99 -7 -437 -7 -520 0 -205 15 -269 21 -335 31
-19 2 -66 9 -105 15 -138 19 -149 22 -388 79 -230 56 -503 145 -672 219 -22
10 -65 29 -95 41 -97 42 -372 185 -480 250 -205 124 -400 264 -580 414 -265
222 -537 509 -715 753 l-60 82 -88 1 c-96 0 -94 3 -47 -60 15 -19 55 -73 90
-119 67 -90 66 -89 161 -201 99 -117 125 -145 264 -285 358 -359 756 -646
1215 -875 165 -83 176 -88 345 -157 236 -97 618 -209 855 -252 36 -6 76 -14
90 -16 14 -3 54 -10 90 -15 36 -5 81 -12 100 -15 147 -22 302 -30 600 -30 375
0 476 7 750 51 761 123 1454 417 2066 877 301 225 605 517 819 787 33 41 63
77 66 80 12 10 187 257 241 340 207 320 393 707 510 1065 49 151 118 403 134
495 2 14 9 48 14 75 14 70 16 80 30 165 6 41 13 86 16 100 2 14 6 52 10 86 3
33 7 74 9 90 26 202 26 689 -1 939 -6 57 -23 185 -30 230 -3 17 -7 41 -9 55
-5 37 -14 86 -31 170 -9 41 -17 82 -19 90 -41 206 -160 577 -255 795 -9 22
-30 69 -45 105 -49 112 -171 344 -256 485 -68 113 -215 334 -246 370 -5 6 -29
37 -53 70 -25 33 -55 71 -66 85 -264 313 -458 506 -720 716 -599 481 -1310
808 -2064 949 -14 3 -36 7 -50 10 -14 3 -42 7 -62 10 -100 13 -115 15 -143 19
-16 3 -55 8 -85 11 -30 3 -73 8 -95 11 -47 7 -729 16 -736 10z"/>
<path d="M9520 9763 c-107 -36 -163 -111 -163 -218 -1 -127 87 -217 212 -218
78 -1 123 17 170 68 105 114 68 291 -74 356 -38 17 -112 24 -145 12z"/>
<path d="M2881 9700 c-8 -6 -10 -3029 -2 -3031 4 -1 79 -2 169 -3 l162 -1 -2
1520 -3 1519 -158 1 c-87 0 -161 -2 -166 -5z"/>
<path d="M5767 8884 c-1 -1 -36 -4 -78 -7 -431 -34 -754 -351 -845 -832 -19
-96 -25 -382 -12 -485 42 -314 203 -578 453 -741 101 -65 244 -126 340 -143
17 -3 41 -8 55 -11 114 -24 372 -24 515 0 107 18 214 49 301 87 l54 23 0 158
c0 86 -2 157 -5 157 -3 0 -29 -13 -58 -29 -28 -17 -86 -41 -127 -55 -73 -24
-99 -31 -170 -42 -19 -3 -46 -7 -60 -10 -49 -8 -276 -5 -340 5 -126 20 -237
63 -333 130 -59 40 -148 139 -185 203 -34 61 -77 175 -87 234 -4 21 -9 50 -11
64 l-4 25 741 0 c407 0 745 2 750 5 22 14 33 336 15 457 -41 281 -139 475
-313 618 -99 81 -240 148 -361 170 -43 7 -230 23 -235 19z m201 -324 c95 -26
148 -56 215 -123 105 -106 156 -247 161 -444 l3 -93 -589 0 -588 0 5 38 c11
89 18 122 45 202 79 239 257 403 471 435 24 4 45 8 46 9 10 10 168 -7 231 -24z"/>
<path d="M11262 8874 c-95 -17 -131 -28 -222 -72 -92 -44 -219 -165 -272 -260
l-35 -63 1 189 1 189 -167 0 c-119 1 -168 -2 -169 -11 -5 -56 -2 -2161 3
-2169 5 -8 58 -12 168 -12 136 0 160 2 161 15 0 8 2 310 3 670 2 636 3 657 24
739 37 140 83 224 176 316 130 129 250 177 426 171 181 -7 302 -82 372 -231
52 -113 54 -138 53 -940 l-1 -740 171 0 170 0 0 810 c-1 911 1 893 -75 1050
-85 176 -242 301 -433 342 -92 20 -261 23 -355 7z"/>
<path d="M3975 8687 c-131 -159 -259 -313 -345 -417 -21 -25 -62 -74 -91 -110
-30 -36 -61 -74 -71 -85 -82 -98 -208 -255 -208 -260 0 -6 208 -284 221 -295
3 -3 32 -41 65 -85 32 -44 66 -89 76 -100 9 -11 65 -84 125 -162 326 -427 386
-503 397 -504 35 -4 396 -3 396 1 0 5 -124 166 -657 853 -123 158 -223 289
-223 292 0 2 26 35 58 73 31 38 73 88 92 112 19 24 53 65 75 90 45 52 526 632
593 715 l42 53 -202 0 -203 -1 -140 -170z"/>
<path d="M7007 8854 c-3 -3 24 -90 60 -192 35 -103 84 -243 108 -312 24 -69
71 -204 105 -300 34 -96 81 -231 105 -300 24 -69 71 -204 104 -300 34 -96 110
-312 168 -480 l107 -305 207 0 c114 0 210 2 212 5 4 4 92 248 274 760 24 69
51 143 59 165 8 22 21 58 28 80 21 63 376 1058 386 1080 11 25 30 86 30 95 0
4 -79 7 -175 8 l-175 0 -9 -31 c-5 -18 -84 -252 -176 -522 -280 -822 -381
-1125 -415 -1245 -18 -63 -34 -116 -35 -118 -1 -1 -19 51 -39 115 -21 65 -74
231 -118 368 -44 138 -96 300 -115 360 -45 142 -138 426 -256 785 l-93 285
-171 2 c-94 1 -173 0 -176 -3z"/>
<path d="M9407 8851 c-2 -5 0 -2134 2 -2171 1 -13 26 -15 169 -15 l167 0 3
1096 2 1096 -170 0 c-94 0 -171 -2 -173 -6z"/>
<path d="M8248 5896 c-31 -22 -27 -72 7 -88 34 -16 74 11 70 47 -1 15 -7 31
-12 36 -15 15 -47 18 -65 5z"/>
<path d="M9743 5899 c-13 -5 -23 -12 -24 -16 0 -4 -2 -18 -5 -30 -2 -15 4 -27
18 -38 30 -21 54 -19 71 5 31 44 -10 97 -60 79z"/>
<path d="M8665 5769 c0 -61 -3 -113 -7 -115 -4 -3 -8 0 -8 6 0 6 -16 18 -36
26 -122 51 -214 -86 -191 -284 14 -121 56 -175 137 -176 41 -1 54 4 79 28 l31
30 0 -27 c0 -24 4 -27 35 -27 27 0 35 4 35 18 1 21 1 482 0 567 l0 60 -38 3
-38 2 1 -111z m-51 -143 c44 -18 50 -38 51 -170 1 -100 -1 -112 -22 -137 -49
-57 -110 -43 -132 30 -16 54 -12 187 6 233 11 28 36 51 61 57 1 1 18 -5 36
-13z"/>
<path d="M10601 5788 c1 -147 2 -142 -18 -123 -36 36 -97 41 -146 11 -51 -31
-85 -137 -81 -250 7 -168 119 -256 219 -173 l35 28 0 -25 c0 -23 4 -26 34 -26
l35 0 -1 320 c0 234 -3 320 -11 321 -7 0 -24 3 -39 5 l-27 5 0 -93z m-22 -182
c22 -22 23 -31 23 -139 0 -103 -3 -120 -22 -147 -42 -58 -107 -46 -130 25 -14
42 -17 153 -7 206 11 53 48 89 84 83 15 -3 39 -15 52 -28z"/>
<path d="M12033 5633 l4 -198 32 -3 c27 -3 31 0 32 20 0 13 2 103 5 201 l5
177 -42 0 -41 0 5 -197z"/>
<path d="M9949 5793 c-13 -3 -16 -15 -13 -53 2 -48 2 -49 -29 -52 -27 -2 -32
-7 -32 -28 0 -20 6 -26 30 -30 l30 -5 1 -167 c0 -153 2 -170 21 -195 28 -39
92 -52 139 -30 38 18 40 24 20 50 -14 18 -17 18 -62 -7 -1 -1 -11 8 -23 18
-20 19 -21 28 -20 177 l2 157 35 0 c36 0 52 14 52 45 0 14 -9 17 -45 17 l-45
0 0 55 c0 58 -6 63 -61 48z"/>
<path d="M6814 5689 c-65 -18 -111 -100 -118 -205 -5 -62 12 -154 35 -190 42
-69 127 -92 204 -54 49 24 51 27 31 53 -13 17 -17 17 -57 4 -48 -16 -83 -9
-105 21 -17 22 -28 93 -26 165 1 64 34 146 58 148 41 4 62 1 88 -11 25 -13 30
-12 42 5 20 27 18 31 -29 54 -46 22 -73 25 -123 10z"/>
<path d="M7158 5692 c-75 -19 -121 -105 -122 -233 0 -73 3 -93 27 -140 36 -72
67 -94 138 -94 116 0 174 80 172 240 -1 107 -25 173 -78 205 -36 22 -95 32
-137 22z m94 -68 c52 -32 56 -270 6 -320 -22 -22 -71 -24 -97 -5 -67 51 -58
304 12 330 21 8 62 5 79 -5z"/>
<path d="M7632 5692 c-12 -4 -36 -20 -52 -35 -30 -29 -37 -25 -31 21 1 7 -11
12 -34 12 l-35 0 0 -231 0 -230 37 3 38 3 0 164 1 163 29 33 c36 40 64 50 91
31 17 -13 19 -29 21 -183 1 -92 2 -178 2 -191 1 -21 5 -23 39 -20 l37 3 0 170
c1 94 -2 185 -6 204 -14 63 -77 101 -137 83z"/>
<path d="M7950 5687 c-45 -16 -80 -68 -80 -120 0 -33 6 -46 38 -76 21 -20 56
-42 77 -50 56 -19 85 -48 85 -85 0 -37 -7 -49 -39 -65 -27 -15 -84 -7 -119 15
-18 12 -26 13 -38 3 -22 -18 -17 -36 16 -59 46 -33 128 -38 182 -12 49 24 66
46 74 97 12 75 -30 129 -126 165 -65 24 -88 61 -69 104 18 38 85 44 135 11 18
-11 22 -11 32 6 18 28 15 37 -18 54 -40 21 -107 26 -150 12z"/>
<path d="M8970 5693 c-54 -17 -102 -72 -116 -135 -21 -88 -4 -222 35 -276 49
-70 165 -81 239 -24 21 16 21 19 7 40 l-16 22 -38 -20 c-35 -17 -69 -19 -108
-5 -17 6 -40 54 -47 98 l-6 37 38 1 c20 0 69 1 107 1 104 0 102 -2 98 71 -4
71 -35 141 -74 170 -26 18 -90 29 -119 20z m72 -64 c24 -13 48 -67 48 -109 l0
-30 -85 0 -85 0 6 38 c8 53 25 85 54 99 31 16 36 16 62 2z"/>
<path d="M9404 5690 c-12 -4 -33 -23 -48 -42 l-26 -33 0 38 c0 35 -1 37 -34
37 l-34 0 0 -230 0 -230 39 0 39 0 0 147 c0 128 3 152 21 189 20 42 47 60 81
55 11 -1 18 8 23 28 10 49 -9 62 -61 41z"/>
<path d="M10875 5677 c-110 -62 -128 -313 -30 -411 58 -58 146 -60 208 -7 100
89 91 353 -15 415 -46 28 -117 29 -163 3z m125 -60 c25 -21 41 -84 42 -166 1
-101 -35 -171 -86 -166 -12 1 -26 3 -33 4 -6 0 -22 15 -34 32 -39 55 -34 244
8 291 25 29 73 31 103 5z"/>
<path d="M11363 5685 c-17 -7 -37 -23 -43 -35 -13 -25 -23 -20 -25 13 -1 18
-8 22 -36 22 l-33 0 -1 -215 c-1 -118 1 -221 3 -227 2 -7 19 -13 38 -13 39 0
36 -17 36 195 0 116 2 133 21 162 38 56 98 67 113 20 4 -12 8 -101 8 -197 l1
-175 38 -3 c33 -3 37 -1 38 20 0 13 0 96 0 185 -1 190 -10 225 -65 248 -43 18
-52 18 -93 0z"/>
<path d="M11708 5677 c-54 -36 -82 -106 -85 -213 -2 -82 0 -96 25 -145 38 -75
68 -94 147 -94 49 0 71 5 91 21 34 25 37 34 20 56 -12 16 -15 16 -50 -1 -71
-37 -137 -3 -151 78 -4 22 -4 44 -2 48 3 4 58 7 122 6 l118 -1 -6 71 c-10 131
-53 186 -147 192 -38 2 -58 -2 -82 -18z m127 -57 c14 -12 26 -52 30 -102 l3
-28 -85 0 -85 0 6 38 c3 20 5 42 6 48 0 6 11 23 24 37 19 20 31 25 56 22 18
-2 38 -9 45 -15z"/>
<path d="M8239 5673 c0 -21 0 -375 0 -415 1 -25 5 -28 35 -28 19 0 36 6 38 13
4 10 3 418 -1 440 0 4 -17 7 -36 7 -26 0 -35 -4 -36 -17z"/>
<path d="M9728 5673 c-2 -10 -3 -112 -3 -228 l1 -210 37 -3 c21 -2 37 1 38 7
0 6 1 103 1 216 0 113 -1 212 -1 220 -1 23 -67 20 -73 -2z"/>
<path d="M12049 5333 c-43 -10 -43 -94 0 -108 55 -17 97 38 64 84 -19 24 -35
30 -64 24z"/>
</g>
</svg>
